<svg width="1034.551" height="145.801" viewBox="0 0 1034.551 145.801" xmlns="http://www.w3.org/2000/svg">
	<g id="svgGroup" stroke-linecap="round" fill-rule="evenodd" font-size="9pt" stroke="#000" stroke-width="0.25mm" fill="none" style="stroke:#000;stroke-width:0.25mm;fill:none">
		<path d="M 87.901 49.8 L 89.251 39.75 L 101.101 39.75 L 94.951 88.8 Q 94.582 91.631 94.515 93.351 A 18.24 18.24 0 0 0 94.501 94.05 A 17.035 17.035 0 0 0 94.677 96.578 Q 94.881 97.94 95.324 99.042 A 7.687 7.687 0 0 0 96.301 100.8 Q 98.101 103.2 102.301 103.2 A 11.048 11.048 0 0 0 107.637 101.791 A 15.126 15.126 0 0 0 109.801 100.35 A 20.447 20.447 0 0 0 113.176 96.919 Q 114.542 95.179 115.738 93.002 A 35.368 35.368 0 0 0 116.101 92.325 Q 118.716 87.312 120.276 80.468 A 69.337 69.337 0 0 0 120.376 80.025 A 65.985 65.985 0 0 0 121.691 71.062 A 83.915 83.915 0 0 0 121.951 64.35 A 51.243 51.243 0 0 0 120.052 50.247 A 46.495 46.495 0 0 0 118.276 45.15 Q 114.601 36.3 107.926 29.85 A 47.366 47.366 0 0 0 92.706 20.042 A 54 54 0 0 0 92.101 19.8 Q 82.951 16.2 72.001 16.2 Q 58.051 16.2 47.176 21.675 Q 36.301 27.15 28.876 36 Q 21.451 44.85 17.626 56.025 Q 13.801 67.2 13.801 78.75 Q 13.801 91.8 17.851 102 A 51.945 51.945 0 0 0 24.908 114.572 A 46.836 46.836 0 0 0 29.101 119.325 Q 36.301 126.45 46.051 130.125 A 57.915 57.915 0 0 0 62.984 133.671 A 67.996 67.996 0 0 0 67.201 133.8 A 82.345 82.345 0 0 0 77.664 133.167 A 60.679 60.679 0 0 0 87.526 131.1 Q 96.451 128.4 104.551 124.5 L 108.901 135.9 A 68.922 68.922 0 0 1 100.88 139.541 Q 95.933 141.436 90.076 142.95 A 89.84 89.84 0 0 1 74.101 145.522 A 107.225 107.225 0 0 1 66.301 145.8 A 83.446 83.446 0 0 1 49.18 144.101 A 71.191 71.191 0 0 1 39.751 141.45 A 58.525 58.525 0 0 1 19.307 129.151 A 56.979 56.979 0 0 1 18.751 128.625 Q 9.901 120.15 4.951 107.775 A 67.362 67.362 0 0 1 0.948 92.643 A 91.184 91.184 0 0 1 0.001 79.2 Q 0.001 64.2 5.176 50.625 Q 10.351 37.05 19.876 26.7 Q 29.401 16.35 42.826 10.275 A 68.41 68.41 0 0 1 63.79 4.681 A 84.409 84.409 0 0 1 72.901 4.2 A 75.408 75.408 0 0 1 88.673 5.792 A 63.101 63.101 0 0 1 98.626 8.775 A 62.429 62.429 0 0 1 112.979 16.634 A 55.626 55.626 0 0 1 118.501 21.3 Q 126.751 29.25 131.251 40.125 A 60.121 60.121 0 0 1 135.711 61.253 A 69.244 69.244 0 0 1 135.751 63.6 A 77.565 77.565 0 0 1 134.826 75.814 A 63.542 63.542 0 0 1 133.126 83.475 A 59.433 59.433 0 0 1 129.9 92.156 A 45.9 45.9 0 0 1 125.926 99.075 A 35.011 35.011 0 0 1 119.146 106.379 A 31.307 31.307 0 0 1 114.976 109.2 Q 108.601 112.8 101.101 112.8 Q 94.599 112.8 90.319 110.037 A 14.54 14.54 0 0 1 88.876 108.975 A 15.273 15.273 0 0 1 83.795 100.641 A 20.396 20.396 0 0 1 83.401 98.55 Q 79.201 103.65 73.351 107.325 A 24.041 24.041 0 0 1 62.656 110.871 A 29.896 29.896 0 0 1 59.851 111 Q 54.151 111 49.051 108.825 Q 43.951 106.65 40.051 102.525 A 29.402 29.402 0 0 1 35.172 95.496 A 35.709 35.709 0 0 1 33.826 92.475 A 32.907 32.907 0 0 1 31.915 85.048 A 43.823 43.823 0 0 1 31.501 78.9 A 47.749 47.749 0 0 1 32.777 67.711 A 42.334 42.334 0 0 1 34.201 63 Q 36.901 55.65 41.551 50.25 Q 46.201 44.85 52.501 41.775 Q 58.801 38.7 66.001 38.7 A 32.233 32.233 0 0 1 72.168 39.261 Q 76.111 40.029 79.276 41.85 Q 84.751 45 87.901 49.8 Z M 82.651 89.7 L 86.251 60 Q 83.251 55.2 78.451 52.2 Q 73.651 49.2 67.501 49.2 Q 63.001 49.2 58.801 51.225 Q 54.601 53.25 51.376 56.925 Q 48.151 60.6 46.276 65.7 A 30.618 30.618 0 0 0 44.566 73.391 A 37.49 37.49 0 0 0 44.401 76.95 A 36.306 36.306 0 0 0 44.95 83.488 Q 46.171 90.143 50.101 94.125 A 18.649 18.649 0 0 0 63.617 99.898 A 22.547 22.547 0 0 0 63.901 99.9 Q 69.751 99.9 74.701 96.675 A 39.605 39.605 0 0 0 78.913 93.536 A 28.871 28.871 0 0 0 82.651 89.7 Z" id="0" vector-effect="non-scaling-stroke"/>
		<path d="M 151.951 104.7 L 157.651 93.45 A 26.104 26.104 0 0 0 162.679 96.904 A 34.983 34.983 0 0 0 167.476 99 A 37.186 37.186 0 0 0 178.684 101.075 A 42.55 42.55 0 0 0 180.151 101.1 A 40.669 40.669 0 0 0 184.775 100.855 Q 189.554 100.307 192.503 98.527 A 11.608 11.608 0 0 0 192.826 98.325 A 11.174 11.174 0 0 0 195.126 96.386 A 7.578 7.578 0 0 0 197.101 91.2 A 10.817 10.817 0 0 0 196.524 87.648 A 10.194 10.194 0 0 0 196.276 87 A 8.065 8.065 0 0 0 195.206 85.205 Q 194.431 84.206 193.276 83.25 Q 191.653 81.907 189.154 80.606 A 41.133 41.133 0 0 0 187.351 79.725 A 73.865 73.865 0 0 0 184.507 78.495 Q 181.538 77.278 177.601 75.9 A 70.659 70.659 0 0 1 171.22 73.417 Q 164.813 70.533 161.101 66.975 A 17.021 17.021 0 0 1 156.255 58.104 A 25.412 25.412 0 0 1 155.701 52.65 Q 155.701 48.15 157.726 44.25 A 19.863 19.863 0 0 1 162.205 38.556 A 23.686 23.686 0 0 1 163.576 37.425 A 25.995 25.995 0 0 1 168.7 34.401 A 33.997 33.997 0 0 1 172.876 32.85 A 37.444 37.444 0 0 1 179.088 31.569 A 51.474 51.474 0 0 1 185.401 31.2 A 63.198 63.198 0 0 1 191.736 31.501 Q 195.577 31.889 198.826 32.775 A 57.812 57.812 0 0 1 205.287 34.936 A 47.269 47.269 0 0 1 209.251 36.75 L 205.501 47.85 A 36.792 36.792 0 0 0 199.999 45.202 A 45.287 45.287 0 0 0 196.276 43.95 A 37.536 37.536 0 0 0 189.551 42.679 A 47.756 47.756 0 0 0 184.801 42.45 Q 179.797 42.45 176.337 43.746 A 12.764 12.764 0 0 0 172.951 45.6 Q 170.262 47.692 169.358 50.048 A 6.794 6.794 0 0 0 168.901 52.5 A 8.352 8.352 0 0 0 169.191 54.732 A 7.395 7.395 0 0 0 169.576 55.8 Q 170.137 57.047 171.476 58.191 A 11.629 11.629 0 0 0 172.051 58.65 A 17.782 17.782 0 0 0 173.57 59.662 Q 174.404 60.163 175.405 60.664 A 38.627 38.627 0 0 0 176.851 61.35 A 57.166 57.166 0 0 0 179.312 62.384 Q 180.425 62.823 181.685 63.277 A 116.723 116.723 0 0 0 184.351 64.2 A 128.14 128.14 0 0 1 189.547 66.123 Q 193.613 67.734 196.801 69.375 A 40.818 40.818 0 0 1 200.873 71.761 Q 202.823 73.07 204.362 74.489 A 23.52 23.52 0 0 1 205.051 75.15 Q 208.201 78.3 209.551 81.975 A 21.919 21.919 0 0 1 210.741 87.154 A 27.383 27.383 0 0 1 210.901 90.15 A 21.046 21.046 0 0 1 210.108 96.014 A 18.353 18.353 0 0 1 208.651 99.6 Q 206.401 103.8 202.351 106.725 A 26.93 26.93 0 0 1 197.091 109.656 A 35.66 35.66 0 0 1 192.526 111.225 A 44.079 44.079 0 0 1 185.218 112.54 A 56.615 56.615 0 0 1 179.701 112.8 A 61.655 61.655 0 0 1 171.44 112.272 A 45.771 45.771 0 0 1 163.651 110.55 Q 157.096 108.458 152.617 105.2 A 27.804 27.804 0 0 1 151.951 104.7 Z" id="1" vector-effect="non-scaling-stroke"/>
		<path d="M 282.301 39.3 L 282.301 33 L 294.601 33 L 294.601 92.1 A 18.225 18.225 0 0 0 294.753 94.554 Q 295.138 97.376 296.495 98.806 A 4.448 4.448 0 0 0 297.376 99.525 Q 300.151 101.25 303.451 101.25 L 300.601 111.75 Q 286.556 111.75 283.356 100.62 A 20.385 20.385 0 0 1 283.201 100.05 A 42.752 42.752 0 0 1 280.205 103.608 A 49.159 49.159 0 0 1 279.076 104.775 A 27.306 27.306 0 0 1 274.135 108.666 A 30.437 30.437 0 0 1 273.751 108.9 Q 270.751 110.7 267.001 111.75 A 28.147 28.147 0 0 1 262.02 112.652 A 35.186 35.186 0 0 1 258.751 112.8 Q 251.401 112.8 245.026 109.95 Q 238.651 107.1 233.926 101.85 Q 229.201 96.6 226.426 89.175 A 43.334 43.334 0 0 1 224.057 79.296 A 55.721 55.721 0 0 1 223.651 72.45 A 49.583 49.583 0 0 1 225.162 60.064 A 44.762 44.762 0 0 1 226.351 56.175 A 41.676 41.676 0 0 1 231.091 46.717 A 37.195 37.195 0 0 1 233.926 43.05 Q 238.801 37.5 245.626 34.35 A 34.686 34.686 0 0 1 258.794 31.238 A 40.623 40.623 0 0 1 260.551 31.2 A 33.876 33.876 0 0 1 267.741 31.936 A 28.055 28.055 0 0 1 272.776 33.525 A 39.003 39.003 0 0 1 279.206 36.966 A 33.154 33.154 0 0 1 282.301 39.3 Z M 281.101 91.05 L 281.101 49.2 Q 277.051 46.35 272.176 44.625 Q 267.301 42.9 261.901 42.9 A 24.213 24.213 0 0 0 255.201 43.804 A 21.671 21.671 0 0 0 252.001 45 Q 247.501 47.1 244.276 50.925 A 26.09 26.09 0 0 0 240.515 56.929 A 32.253 32.253 0 0 0 239.251 60.15 A 35.139 35.139 0 0 0 237.627 68.071 A 42.932 42.932 0 0 0 237.451 72 Q 237.451 78.3 239.251 83.625 A 28.924 28.924 0 0 0 242.065 89.661 A 24.818 24.818 0 0 0 244.351 92.775 Q 247.651 96.6 252.076 98.7 Q 256.501 100.8 261.751 100.8 Q 267.451 100.8 272.551 98.1 Q 277.651 95.4 281.101 91.05 Z" id="2" vector-effect="non-scaling-stroke"/>
		<path d="M 324.751 35.85 L 327.601 11.25 L 337.951 11.25 L 337.951 35.85 L 359.551 35.85 L 359.551 47.55 L 337.951 47.55 L 337.951 85.2 A 32.512 32.512 0 0 0 338.088 88.273 Q 338.231 89.774 338.522 91.07 A 16.543 16.543 0 0 0 338.926 92.55 Q 339.783 95.188 341.163 96.898 A 9.423 9.423 0 0 0 341.551 97.35 Q 343.201 99.15 345.526 99.975 Q 347.851 100.8 350.401 100.8 A 20.84 20.84 0 0 0 356.197 100.008 A 19.302 19.302 0 0 0 357.451 99.6 Q 360.751 98.4 363.751 96.75 L 367.501 107.55 Q 365.462 108.773 362.453 109.962 A 65.048 65.048 0 0 1 359.401 111.075 Q 354.301 112.8 348.751 112.8 A 27.752 27.752 0 0 1 340.978 111.766 A 20.927 20.927 0 0 1 330.976 105.45 Q 325.616 99.413 324.659 88.922 A 52.557 52.557 0 0 1 324.451 84.15 L 324.451 47.55 L 310.951 47.55 L 310.951 35.85 L 324.751 35.85 Z" id="3" vector-effect="non-scaling-stroke"/>
		<path d="M 368.251 142.8 L 371.251 131.55 A 15.386 15.386 0 0 0 372.984 132.411 Q 373.895 132.799 374.954 133.133 A 27.385 27.385 0 0 0 375.676 133.35 Q 378.135 134.053 381.319 134.097 A 31.031 31.031 0 0 0 381.751 134.1 A 19.613 19.613 0 0 0 386.354 133.572 A 17.729 17.729 0 0 0 387.676 133.2 A 13.922 13.922 0 0 0 391.139 131.493 A 17.841 17.841 0 0 0 393.001 130.05 Q 395.551 127.8 397.876 123.9 Q 399.683 120.868 401.445 116.658 A 92.604 92.604 0 0 0 402.451 114.15 L 405.901 105.15 L 398.701 105.15 L 368.251 36.6 L 380.251 31.2 L 409.351 96.15 L 432.001 31.8 L 444.451 36.6 L 415.801 114.9 A 110.392 110.392 0 0 1 413.273 121.218 Q 411.862 124.436 410.388 127.137 A 55.997 55.997 0 0 1 408.826 129.825 Q 405.151 135.75 400.951 139.35 A 25.503 25.503 0 0 1 395.002 143.206 A 22.79 22.79 0 0 1 391.876 144.375 A 36.011 36.011 0 0 1 383.593 145.746 A 41.755 41.755 0 0 1 381.451 145.8 Q 376.951 145.8 373.576 144.9 A 30.49 30.49 0 0 1 371.424 144.246 Q 370.418 143.896 369.585 143.51 A 12.921 12.921 0 0 1 368.251 142.8 Z" id="4" vector-effect="non-scaling-stroke"/>
		<path d="M 508.351 39.3 L 508.351 33 L 520.651 33 L 520.651 92.1 A 18.225 18.225 0 0 0 520.803 94.554 Q 521.188 97.376 522.545 98.806 A 4.448 4.448 0 0 0 523.426 99.525 Q 526.201 101.25 529.501 101.25 L 526.651 111.75 Q 512.606 111.75 509.406 100.62 A 20.385 20.385 0 0 1 509.251 100.05 A 42.752 42.752 0 0 1 506.255 103.608 A 49.159 49.159 0 0 1 505.126 104.775 A 27.306 27.306 0 0 1 500.185 108.666 A 30.437 30.437 0 0 1 499.801 108.9 Q 496.801 110.7 493.051 111.75 A 28.147 28.147 0 0 1 488.07 112.652 A 35.186 35.186 0 0 1 484.801 112.8 Q 477.451 112.8 471.076 109.95 Q 464.701 107.1 459.976 101.85 Q 455.251 96.6 452.476 89.175 A 43.334 43.334 0 0 1 450.107 79.296 A 55.721 55.721 0 0 1 449.701 72.45 A 49.583 49.583 0 0 1 451.212 60.064 A 44.762 44.762 0 0 1 452.401 56.175 A 41.676 41.676 0 0 1 457.141 46.717 A 37.195 37.195 0 0 1 459.976 43.05 Q 464.851 37.5 471.676 34.35 A 34.686 34.686 0 0 1 484.844 31.238 A 40.623 40.623 0 0 1 486.601 31.2 A 33.876 33.876 0 0 1 493.791 31.936 A 28.055 28.055 0 0 1 498.826 33.525 A 39.003 39.003 0 0 1 505.256 36.966 A 33.154 33.154 0 0 1 508.351 39.3 Z M 507.151 91.05 L 507.151 49.2 Q 503.101 46.35 498.226 44.625 Q 493.351 42.9 487.951 42.9 A 24.213 24.213 0 0 0 481.251 43.804 A 21.671 21.671 0 0 0 478.051 45 Q 473.551 47.1 470.326 50.925 A 26.09 26.09 0 0 0 466.565 56.929 A 32.253 32.253 0 0 0 465.301 60.15 A 35.139 35.139 0 0 0 463.677 68.071 A 42.932 42.932 0 0 0 463.501 72 Q 463.501 78.3 465.301 83.625 A 28.924 28.924 0 0 0 468.115 89.661 A 24.818 24.818 0 0 0 470.401 92.775 Q 473.701 96.6 478.126 98.7 Q 482.551 100.8 487.801 100.8 Q 493.501 100.8 498.601 98.1 Q 503.701 95.4 507.151 91.05 Z" id="5" vector-effect="non-scaling-stroke"/>
		<path d="M 560.551 33 L 560.551 46.05 Q 564.751 39.75 571.126 35.475 Q 577.501 31.2 585.901 31.2 Q 594.202 31.2 599.754 34.725 A 19.271 19.271 0 0 1 601.051 35.625 A 23.685 23.685 0 0 1 608.573 45.388 A 29.618 29.618 0 0 1 609.451 47.7 Q 614.101 40.8 620.476 36 A 23.503 23.503 0 0 1 630.662 31.675 A 32.169 32.169 0 0 1 636.301 31.2 A 31.987 31.987 0 0 1 641.774 31.646 A 23.528 23.528 0 0 1 647.326 33.3 Q 652.051 35.4 655.201 39.225 A 24.493 24.493 0 0 1 659.009 45.729 A 29.817 29.817 0 0 1 659.926 48.375 A 38.063 38.063 0 0 1 661.279 55.471 A 47.991 47.991 0 0 1 661.501 60.15 L 661.501 111 L 648.001 111 L 648.001 61.2 Q 648.001 53.1 644.251 48.075 A 11.961 11.961 0 0 0 635.531 43.131 A 16.017 16.017 0 0 0 633.901 43.05 Q 630.451 43.05 627.301 44.4 A 24.815 24.815 0 0 0 622.018 47.509 A 28.083 28.083 0 0 0 621.301 48.075 A 38.432 38.432 0 0 0 616.868 52.348 A 43.783 43.783 0 0 0 615.901 53.475 Q 613.351 56.55 611.251 59.85 L 611.251 111 L 597.751 111 L 597.751 61.2 Q 597.751 53.1 594.001 48.075 A 11.961 11.961 0 0 0 585.281 43.131 A 16.017 16.017 0 0 0 583.651 43.05 Q 580.351 43.05 577.201 44.325 A 25.289 25.289 0 0 0 572.231 47.041 A 29.018 29.018 0 0 0 571.126 47.85 A 35.672 35.672 0 0 0 566.132 52.544 A 39.726 39.726 0 0 0 565.651 53.1 Q 563.101 56.1 561.001 59.4 L 561.001 111 L 547.501 111 L 547.501 33 L 560.551 33 Z" id="6" vector-effect="non-scaling-stroke"/>
		<path d="M 678.001 104.7 L 683.701 93.45 A 26.104 26.104 0 0 0 688.729 96.904 A 34.983 34.983 0 0 0 693.526 99 A 37.186 37.186 0 0 0 704.734 101.075 A 42.55 42.55 0 0 0 706.201 101.1 A 40.669 40.669 0 0 0 710.825 100.855 Q 715.604 100.307 718.553 98.527 A 11.608 11.608 0 0 0 718.876 98.325 A 11.174 11.174 0 0 0 721.176 96.386 A 7.578 7.578 0 0 0 723.151 91.2 A 10.817 10.817 0 0 0 722.574 87.648 A 10.194 10.194 0 0 0 722.326 87 A 8.065 8.065 0 0 0 721.256 85.205 Q 720.481 84.206 719.326 83.25 Q 717.703 81.907 715.204 80.606 A 41.133 41.133 0 0 0 713.401 79.725 A 73.865 73.865 0 0 0 710.557 78.495 Q 707.588 77.278 703.651 75.9 A 70.659 70.659 0 0 1 697.27 73.417 Q 690.863 70.533 687.151 66.975 A 17.021 17.021 0 0 1 682.305 58.104 A 25.412 25.412 0 0 1 681.751 52.65 Q 681.751 48.15 683.776 44.25 A 19.863 19.863 0 0 1 688.255 38.556 A 23.686 23.686 0 0 1 689.626 37.425 A 25.995 25.995 0 0 1 694.75 34.401 A 33.997 33.997 0 0 1 698.926 32.85 A 37.444 37.444 0 0 1 705.138 31.569 A 51.474 51.474 0 0 1 711.451 31.2 A 63.198 63.198 0 0 1 717.786 31.501 Q 721.627 31.889 724.876 32.775 A 57.812 57.812 0 0 1 731.337 34.936 A 47.269 47.269 0 0 1 735.301 36.75 L 731.551 47.85 A 36.792 36.792 0 0 0 726.049 45.202 A 45.287 45.287 0 0 0 722.326 43.95 A 37.536 37.536 0 0 0 715.601 42.679 A 47.756 47.756 0 0 0 710.851 42.45 Q 705.847 42.45 702.387 43.746 A 12.764 12.764 0 0 0 699.001 45.6 Q 696.312 47.692 695.408 50.048 A 6.794 6.794 0 0 0 694.951 52.5 A 8.352 8.352 0 0 0 695.241 54.732 A 7.395 7.395 0 0 0 695.626 55.8 Q 696.187 57.047 697.526 58.191 A 11.629 11.629 0 0 0 698.101 58.65 A 17.782 17.782 0 0 0 699.62 59.662 Q 700.454 60.163 701.455 60.664 A 38.627 38.627 0 0 0 702.901 61.35 A 57.166 57.166 0 0 0 705.362 62.384 Q 706.475 62.823 707.735 63.277 A 116.723 116.723 0 0 0 710.401 64.2 A 128.14 128.14 0 0 1 715.597 66.123 Q 719.663 67.734 722.851 69.375 A 40.818 40.818 0 0 1 726.923 71.761 Q 728.873 73.07 730.412 74.489 A 23.52 23.52 0 0 1 731.101 75.15 Q 734.251 78.3 735.601 81.975 A 21.919 21.919 0 0 1 736.791 87.154 A 27.383 27.383 0 0 1 736.951 90.15 A 21.046 21.046 0 0 1 736.158 96.014 A 18.353 18.353 0 0 1 734.701 99.6 Q 732.451 103.8 728.401 106.725 A 26.93 26.93 0 0 1 723.141 109.656 A 35.66 35.66 0 0 1 718.576 111.225 A 44.079 44.079 0 0 1 711.268 112.54 A 56.615 56.615 0 0 1 705.751 112.8 A 61.655 61.655 0 0 1 697.49 112.272 A 45.771 45.771 0 0 1 689.701 110.55 Q 683.146 108.458 678.667 105.2 A 27.804 27.804 0 0 1 678.001 104.7 Z" id="7" vector-effect="non-scaling-stroke"/>
		<path d="M 768.451 33 L 768.451 111 L 754.951 111 L 754.951 33 L 768.451 33 Z M 761.701 19.65 Q 757.801 19.65 755.026 16.875 A 9.091 9.091 0 0 1 752.251 10.322 A 10.887 10.887 0 0 1 752.251 10.2 Q 752.251 5.85 754.801 3.3 A 8.492 8.492 0 0 1 759.217 0.987 A 12.396 12.396 0 0 1 761.701 0.75 Q 765.601 0.75 768.376 3.525 A 9.091 9.091 0 0 1 771.15 10.078 A 10.887 10.887 0 0 1 771.151 10.2 Q 771.151 14.55 768.601 17.1 A 8.492 8.492 0 0 1 764.184 19.413 A 12.396 12.396 0 0 1 761.701 19.65 Z" id="8" vector-effect="non-scaling-stroke"/>
		<path d="M 805.501 33 L 805.501 46.05 Q 809.701 39.75 816.226 35.475 Q 822.751 31.2 831.751 31.2 Q 844.951 31.2 851.476 39.15 Q 857.663 46.689 857.983 58.813 A 50.646 50.646 0 0 1 858.001 60.15 L 858.001 111 L 844.501 111 L 844.501 61.65 A 30.418 30.418 0 0 0 844.04 56.188 Q 843.476 53.103 842.223 50.641 A 16.033 16.033 0 0 0 840.601 48.075 A 12.691 12.691 0 0 0 831.683 43.174 A 18.583 18.583 0 0 0 829.501 43.05 Q 826.051 43.05 822.751 44.325 A 27.262 27.262 0 0 0 817.197 47.27 A 30.938 30.938 0 0 0 816.376 47.85 Q 813.301 50.1 810.676 53.1 Q 808.051 56.1 805.951 59.4 L 805.951 111 L 792.451 111 L 792.451 33 L 805.501 33 Z" id="9" vector-effect="non-scaling-stroke"/>
		<path d="M 933.451 39 L 933.451 33 L 945.751 33 L 945.751 109.2 Q 945.751 118.95 943.201 125.85 A 32.025 32.025 0 0 1 939.878 132.483 A 26.373 26.373 0 0 1 935.926 137.175 A 29.03 29.03 0 0 1 925.621 143.358 A 33.848 33.848 0 0 1 924.601 143.7 A 44.093 44.093 0 0 1 916 145.48 A 56.204 56.204 0 0 1 909.901 145.8 A 54.544 54.544 0 0 1 897.209 144.35 A 50.868 50.868 0 0 1 896.401 144.15 A 40.526 40.526 0 0 1 888.17 141.101 A 35.655 35.655 0 0 1 884.851 139.2 L 889.801 127.5 Q 893.401 130.35 898.201 132.225 A 25.357 25.357 0 0 0 902.982 133.539 Q 905.335 133.959 908.039 134.064 A 47.682 47.682 0 0 0 909.901 134.1 A 32.976 32.976 0 0 0 916.682 133.444 Q 922.639 132.192 926.626 128.55 Q 932.701 123 932.701 110.55 L 932.701 100.95 A 23.697 23.697 0 0 1 929.702 103.921 Q 928.088 105.273 926.069 106.568 A 47.11 47.11 0 0 1 924.076 107.775 A 23.86 23.86 0 0 1 916.304 110.527 A 32.385 32.385 0 0 1 910.651 111 Q 904.051 111 897.751 108.375 Q 891.451 105.75 886.651 100.725 A 36.251 36.251 0 0 1 880.719 92.339 A 44.375 44.375 0 0 1 878.926 88.425 Q 876.001 81.15 876.001 71.7 A 46.615 46.615 0 0 1 877.344 60.355 A 41.253 41.253 0 0 1 878.851 55.575 A 42.443 42.443 0 0 1 883.727 46.323 A 37.604 37.604 0 0 1 886.576 42.75 Q 891.451 37.35 898.051 34.275 Q 904.651 31.2 912.151 31.2 A 40.438 40.438 0 0 1 912.256 31.2 Q 915.756 31.209 918.871 31.825 A 27.344 27.344 0 0 1 924.226 33.45 A 38.396 38.396 0 0 1 930.186 36.582 A 31.989 31.989 0 0 1 933.451 39 Z M 932.251 90 L 932.251 49.2 Q 928.801 46.8 924.301 44.85 Q 920.152 43.052 914.474 42.912 A 39.369 39.369 0 0 0 913.501 42.9 Q 908.851 42.9 904.576 44.775 Q 900.301 46.65 897.001 50.25 A 25.325 25.325 0 0 0 893.028 56.091 A 31.135 31.135 0 0 0 891.751 59.025 A 29.502 29.502 0 0 0 890.187 65.251 A 40.12 40.12 0 0 0 889.801 70.95 Q 889.801 77.4 891.751 82.575 A 29.708 29.708 0 0 0 894.629 88.325 A 25.206 25.206 0 0 0 897.001 91.425 Q 900.301 95.1 904.576 97.05 Q 908.851 99 913.651 99 A 22.914 22.914 0 0 0 920.518 97.997 A 20.409 20.409 0 0 0 924.451 96.3 A 31.282 31.282 0 0 0 928.922 93.276 A 24.464 24.464 0 0 0 932.251 90 Z" id="10" vector-effect="non-scaling-stroke"/>
		<path d="M 982.501 0 L 982.501 45.45 Q 986.701 39.3 993.076 35.25 Q 999.451 31.2 1008.301 31.2 Q 1021.501 31.2 1028.026 39.15 Q 1034.213 46.689 1034.533 58.813 A 50.646 50.646 0 0 1 1034.551 60.15 L 1034.551 111 L 1021.051 111 L 1021.051 61.65 A 31 31 0 0 0 1020.599 56.188 Q 1019.736 51.373 1017.226 48.075 A 12.426 12.426 0 0 0 1008.576 43.198 A 18.358 18.358 0 0 0 1006.201 43.05 Q 1002.751 43.05 999.376 44.325 Q 996.001 45.6 993.001 47.85 A 39.228 39.228 0 0 0 988.066 52.271 A 44.134 44.134 0 0 0 987.301 53.1 Q 984.601 56.1 982.501 59.4 L 982.501 111 L 969.001 111 L 969.001 0 L 982.501 0 Z" id="11" vector-effect="non-scaling-stroke"/>
	</g>
</svg>